<mxfile host="app.diagrams.net" modified="2023-10-07T09:01:43.645Z" agent="Mozilla/5.0 (Macintosh; Intel Mac OS X 10_15_7) AppleWebKit/537.36 (KHTML, like Gecko) Chrome/116.0.0.0 Safari/537.36" version="21.8.0" etag="Kv07vGUxDntCRWSMlsFZ" type="github">
  <diagram name="Page-1" id="WTN1GjcHIIp3ReJ8WbBo">
    <mxGraphModel>
      <root>
        <mxCell id="0" />
        <mxCell id="1" parent="0" />
      </root>
    </mxGraphModel>
  </diagram>
</mxfile>
